<svg width="37" height="34" viewBox="0 0 37 34" fill="none" xmlns="http://www.w3.org/2000/svg">
<path d="M32 24.0082H30V17.0082C30 16.743 29.8946 16.4886 29.7071 16.3011C29.5196 16.1135 29.2652 16.0082 29 16.0082H18V9.99219H20C20.2652 9.99219 20.5196 9.88683 20.7071 9.69929C20.8946 9.51176 21 9.2574 21 8.99219V3.99219C21 3.72697 20.8946 3.47262 20.7071 3.28508C20.5196 3.09754 20.2652 2.99219 20 2.99219H14C13.7348 2.99219 13.4804 3.09754 13.2929 3.28508C13.1054 3.47262 13 3.72697 13 3.99219V8.99219C13 9.2574 13.1054 9.51176 13.2929 9.69929C13.4804 9.88683 13.7348 9.99219 14 9.99219H16V16.0092H5C4.73478 16.0092 4.48043 16.1145 4.29289 16.3021C4.10536 16.4896 4 16.744 4 17.0092V24.0092H2C1.73478 24.0092 1.48043 24.1145 1.29289 24.3021C1.10536 24.4896 1 24.744 1 25.0092V30.0092C1 30.2744 1.10536 30.5288 1.29289 30.7163C1.48043 30.9038 1.73478 31.0092 2 31.0092H8C8.26522 31.0092 8.51957 30.9038 8.70711 30.7163C8.89464 30.5288 9 30.2744 9 30.0092V25.0092C9 24.744 8.89464 24.4896 8.70711 24.3021C8.51957 24.1145 8.26522 24.0092 8 24.0092H6V18.0092H16V24.0092H14C13.7348 24.0092 13.4804 24.1145 13.2929 24.3021C13.1054 24.4896 13 24.744 13 25.0092V30.0092C13 30.2744 13.1054 30.5288 13.2929 30.7163C13.4804 30.9038 13.7348 31.0092 14 31.0092H20C20.2652 31.0092 20.5196 30.9038 20.7071 30.7163C20.8946 30.5288 21 30.2744 21 30.0092V25.0092C21 24.744 20.8946 24.4896 20.7071 24.3021C20.5196 24.1145 20.2652 24.0092 20 24.0092H18V18.0092H28V24.0092H26C25.7348 24.0092 25.4804 24.1145 25.2929 24.3021C25.1054 24.4896 25 24.744 25 25.0092V30.0092C25 30.2744 25.1054 30.5288 25.2929 30.7163C25.4804 30.9038 25.7348 31.0092 26 31.0092H32C32.2652 31.0092 32.5196 30.9038 32.7071 30.7163C32.8946 30.5288 33 30.2744 33 30.0092V25.0092C33.0001 24.8778 32.9744 24.7476 32.9242 24.6262C32.874 24.5048 32.8003 24.3944 32.7075 24.3014C32.6146 24.2085 32.5043 24.1347 32.3829 24.0844C32.2615 24.0341 32.1314 24.0082 32 24.0082ZM15 4.99219H19V7.99219H15V4.99219ZM7 29.0082H3V26.0082H7V29.0082ZM19 29.0082H15V26.0082H19V29.0082ZM31 29.0082H27V26.0082H31V29.0082Z" fill="#40BAFF"/>
</svg>
