<svg width="392" height="352" viewBox="0 0 392 352" fill="none" xmlns="http://www.w3.org/2000/svg">
<g style="mix-blend-mode:hard-light" opacity="0.6">
<path d="M177.68 2.98242L255.57 31.8906L305.635 92.7618L305.078 137.933L54.3694 297.929L25.9968 278.963L6.31201 232.333V184.858L21.344 133.668L76.9813 52.9663L177.68 2.98242Z" fill="url(#paint0_linear_1_17560)"/>
<path d="M255.571 31.8906L205.769 22.1493L116.236 75.4595L65.5093 166.919L53.8879 249.336L54.3697 297.929L25.9971 278.963L25.5137 230.37L37.1335 147.951L87.8606 56.4896L177.68 2.98242L255.571 31.8906Z" fill="#65A3ED"/>
<path d="M6.31201 184.858L25.5133 230.37L25.9968 278.963L6.31201 232.334V184.858Z" fill="#584EE2"/>
<path d="M37.1331 147.951L25.5133 230.37L6.31201 184.858L21.344 133.668L37.1331 147.951Z" fill="#6E89EC"/>
<path d="M87.8605 56.4901L37.1334 147.951L21.3442 133.668L76.9815 52.9668L87.8605 56.4901Z" fill="#699DED"/>
<path d="M76.9814 52.9663L87.8604 56.4895L177.68 2.98242L76.9814 52.9663Z" fill="#54D2F9"/>
<path d="M177.68 2.98242L205.769 22.1493L116.236 75.4595L87.8604 56.4896L177.68 2.98242Z" fill="#4EC9EF"/>
<path d="M87.8604 56.4893L37.1333 147.95L65.5092 166.919L116.236 75.4592L87.8604 56.4893Z" fill="#5BB4ED"/>
<path d="M37.1335 147.951L25.5137 230.37L53.8879 249.336L65.5093 166.919L37.1335 147.951Z" fill="#5B5CEB"/>
<path d="M25.5137 230.369L25.9971 278.962L54.3697 297.929L53.8879 249.336L25.5137 230.369Z" fill="#6158F1"/>
<path d="M53.8878 249.336L25.9971 278.963L54.3697 297.929L53.8878 249.336Z" fill="#6345EB"/>
<path d="M37.1333 147.951L53.8877 249.336L65.5092 166.919L37.1333 147.951Z" fill="#6E89EC"/>
<path d="M116.236 75.46L37.1333 147.951L65.5092 166.919L116.236 75.46Z" fill="#689EED"/>
<path d="M177.68 2.98242L116.236 75.4595L205.769 22.1493L177.68 2.98242Z" fill="#5AB6EE"/>
<path d="M76.9814 52.9668L37.1333 147.951L87.8604 56.4901L76.9814 52.9668Z" fill="#5CACE8"/>
<path d="M37.1331 147.951L6.31201 184.859L25.5133 230.37L37.1331 147.951Z" fill="#626BEB"/>
<path d="M6.31201 184.858L25.9968 278.963L25.5133 230.37L6.31201 184.858Z" fill="#5B53E9"/>
<path d="M180.704 113.054L129.977 204.515L190.679 202.476L180.704 113.054Z" fill="#699DED"/>
<path d="M342.286 116.355L363.984 100.096L271.907 57.3379L342.286 116.355Z" fill="#5D47E8"/>
<path d="M118.357 286.932L118.839 335.529L82.7505 265.255L118.357 286.932Z" fill="#6068EB"/>
<path d="M83.2323 313.844L118.839 335.529L82.7505 265.255L83.2323 313.844Z" fill="#5A5DE3"/>
<path d="M129.977 204.515L82.7505 265.255L118.357 286.932L129.977 204.515Z" fill="#6D87EC"/>
<path d="M129.977 204.515L94.3701 182.836L145.097 91.3711L129.977 204.515Z" fill="#5EB0ED"/>
<path d="M129.977 204.515L180.704 113.054L145.098 91.3711L129.977 204.515Z" fill="#69AFF6"/>
<path d="M129.977 204.515L94.3703 182.836L82.7505 265.255L129.977 204.515Z" fill="#6A9BED"/>
<path d="M180.704 113.054L145.097 91.3713L271.907 57.3379L180.704 113.054Z" fill="#65A4ED"/>
<path d="M234.63 38.0645L145.097 91.3711L271.907 57.3377L234.63 38.0645Z" fill="#65AAF1"/>
<path d="M271.907 57.3377L234.63 38.0645L294.162 54.3254L363.984 100.096L271.907 57.3377Z" fill="#5A58EB"/>
<path d="M192.347 287.389L193.138 348.018L118.839 335.528L118.357 286.932L192.347 287.389Z" fill="#5A5AEB"/>
<path d="M190.678 202.477L192.347 287.39L118.357 286.932L129.977 204.515L190.678 202.477Z" fill="#7090EC"/>
<path d="M238.246 183.505L190.678 202.476L180.704 113.054L238.246 183.505Z" fill="#6F92EC"/>
<path d="M265.228 269.925L342.286 116.354L238.246 183.504L265.228 269.925Z" fill="#5B59EB"/>
<path d="M265.229 269.925L342.286 116.354L367.599 202.476L265.229 269.925Z" fill="#6148EB"/>
<path d="M342.286 116.355L180.704 113.054L238.246 183.505L342.286 116.355Z" fill="#687BEC"/>
<path d="M342.286 116.355L180.704 113.054L271.907 57.3379L342.286 116.355Z" fill="#6370EB"/>
<path d="M390.689 156.102L342.286 116.354L367.599 202.476L390.689 156.102Z" fill="url(#paint1_radial_1_17560)"/>
<path d="M369.536 271.801L390.69 156.103L367.599 202.476L369.536 271.801Z" fill="#6236D6"/>
<path d="M369.536 271.801L310.985 270.747L265.229 269.926L267.561 335.528L369.536 271.801Z" fill="#5E3FDE"/>
<path d="M267.561 335.529L192.347 287.39L193.138 348.018L267.561 335.529Z" fill="#5D49E6"/>
<path d="M267.561 335.528L192.347 287.39L265.228 269.926L267.561 335.528Z" fill="#6048EB"/>
<path d="M192.347 287.39L238.246 183.505L265.228 269.926L192.347 287.39Z" fill="#5B5CEB"/>
<path d="M192.347 287.39L238.246 183.505L190.678 202.477L192.347 287.39Z" fill="#687BEC"/>
<path d="M190.678 202.477L118.357 286.932L192.347 287.39L190.678 202.477Z" fill="#6472EC"/>
<path d="M192.347 287.39L118.839 335.529L193.138 348.018L192.347 287.39Z" fill="#5D51EB"/>
<path d="M363.983 100.096L342.286 116.355L390.689 156.102L363.983 100.096Z" fill="#6441EA"/>
<path d="M369.536 271.801L265.229 269.926L367.599 202.477L369.536 271.801Z" fill="#6739EA"/>
<path d="M82.624 279.901L54.3694 297.929L25.9968 278.963L6.31201 232.334V184.858L21.344 133.668L76.9813 52.9665L177.68 2.98438L255.57 31.8925L268.1 47.1263" stroke="#30E9EF" stroke-linecap="round" stroke-linejoin="round"/>
<path d="M25.9968 278.963L54.3694 297.929L53.8876 249.34L65.509 166.921L116.236 75.4597L205.769 22.1512L255.57 31.8925L177.68 2.98438L87.8619 56.4915L37.1331 147.951M25.9968 278.963L25.5133 230.37M25.9968 278.963L6.31201 232.334V184.858M25.5133 230.37L37.1331 147.951M25.5133 230.37L6.31201 184.858M37.1331 147.951L21.344 133.668L6.31201 184.858" stroke="#30E9EF" stroke-linecap="round" stroke-linejoin="round"/>
<path d="M87.8622 56.4918L37.1334 147.951L21.3442 133.668L76.9815 52.9668L87.8622 56.4918Z" stroke="#30E9EF" stroke-linecap="round" stroke-linejoin="round"/>
<path d="M76.9814 52.9665L87.8621 56.4915L177.68 2.98438L76.9814 52.9665Z" stroke="#30E9EF" stroke-linecap="round" stroke-linejoin="round"/>
<path d="M177.68 2.98438L205.77 22.1512L116.237 75.4597L87.8623 56.4915L177.68 2.98438Z" stroke="#30E9EF" stroke-linecap="round" stroke-linejoin="round"/>
<path d="M87.8621 56.4912L37.1333 147.951L65.5092 166.92L116.236 75.4593L87.8621 56.4912Z" stroke="#30E9EF" stroke-linecap="round" stroke-linejoin="round"/>
<path d="M37.1335 147.951L25.5137 230.37L53.8879 249.34L65.5093 166.921L37.1335 147.951Z" stroke="#30E9EF" stroke-linecap="round" stroke-linejoin="round"/>
<path d="M25.5137 230.369L25.9971 278.962L54.3697 297.929L53.8879 249.339L25.5137 230.369Z" stroke="#30E9EF" stroke-linecap="round" stroke-linejoin="round"/>
<path d="M53.8878 249.34L25.9971 278.963L54.3697 297.929L53.8878 249.34ZM53.8878 249.34L37.1334 147.951L65.5092 166.921L53.8878 249.34Z" stroke="#30E9EF" stroke-linecap="round" stroke-linejoin="round"/>
<path d="M116.236 75.4597L37.1331 147.951M116.236 75.4597L65.509 166.921L37.1331 147.951M116.236 75.4597L177.68 2.98438L205.769 22.1512L116.236 75.4597ZM37.1331 147.951L76.9813 52.9665L87.8619 56.4915L37.1331 147.951ZM37.1331 147.951L6.31201 184.858M37.1331 147.951L25.5133 230.37M6.31201 184.858L25.5133 230.37M6.31201 184.858L25.9968 278.963L25.5133 230.37M118.837 335.528L118.357 286.932L82.7502 265.255M118.837 335.528L82.7502 265.255M118.837 335.528L83.232 313.844L82.7502 265.255M180.702 113.055L129.975 204.518L190.678 202.476L180.702 113.055ZM342.286 116.355L363.982 100.096L271.907 57.3377L342.286 116.355Z" stroke="#30E9EF" stroke-linecap="round" stroke-linejoin="round"/>
<path d="M129.975 204.519L82.7505 265.255L118.357 286.932L129.975 204.519Z" stroke="#30E9EF" stroke-linecap="round" stroke-linejoin="round"/>
<path d="M129.975 204.518L94.3701 182.835L145.097 91.376M129.975 204.518L145.097 91.376M129.975 204.518L180.702 113.055L145.097 91.376" stroke="#30E9EF" stroke-linecap="round" stroke-linejoin="round"/>
<path d="M129.975 204.518L94.3703 182.836L82.7505 265.255L129.975 204.518ZM180.702 113.055L145.097 91.3766L271.907 57.3379L180.702 113.055Z" stroke="#30E9EF" stroke-linecap="round" stroke-linejoin="round"/>
<path d="M234.63 38.0664L145.097 91.3766L271.907 57.3379L234.63 38.0664Z" stroke="#30E9EF" stroke-linecap="round" stroke-linejoin="round"/>
<path d="M192.347 287.393L193.135 348.018L118.837 335.528L118.357 286.932M192.347 287.393L118.357 286.932M192.347 287.393L190.678 202.476M118.357 286.932L129.975 204.518L190.678 202.476M190.678 202.476L238.246 183.505M190.678 202.476L180.702 113.055L238.246 183.505M238.246 183.505L342.286 116.355L265.228 269.926L238.246 183.505ZM271.907 57.3379L234.63 38.0664L294.161 54.3273L363.982 100.096L271.907 57.3379Z" stroke="#30E9EF" stroke-linecap="round" stroke-linejoin="round"/>
<path d="M342.286 116.355L265.228 269.926L367.599 202.477L342.286 116.355ZM342.286 116.355L180.702 113.056L238.245 183.505L342.286 116.355Z" stroke="#30E9EF" stroke-linecap="round" stroke-linejoin="round"/>
<path d="M342.286 116.355L180.702 113.055L271.907 57.3379L342.286 116.355Z" stroke="#30E9EF" stroke-linecap="round" stroke-linejoin="round"/>
<path d="M390.688 156.102L342.286 116.354L367.599 202.476M390.688 156.102L367.599 202.476M390.688 156.102L369.534 271.8M367.599 202.476L369.534 271.8M369.534 271.8L310.985 270.747L265.228 269.925L267.561 335.528M369.534 271.8L267.561 335.528M267.561 335.528L192.347 287.392L193.135 348.017L267.561 335.528Z" stroke="#30E9EF" stroke-linecap="round" stroke-linejoin="round"/>
<path d="M267.561 335.528L192.347 287.393L265.228 269.926L267.561 335.528Z" stroke="#30E9EF" stroke-linecap="round" stroke-linejoin="round"/>
<path d="M192.347 287.393L238.246 183.505L265.228 269.926L192.347 287.393Z" stroke="#30E9EF" stroke-linecap="round" stroke-linejoin="round"/>
<path d="M192.347 287.393L238.246 183.505L190.678 202.477L192.347 287.393Z" stroke="#30E9EF" stroke-linecap="round" stroke-linejoin="round"/>
<path d="M192.347 287.393L118.357 286.932L190.678 202.476L192.347 287.393ZM192.347 287.393L118.837 335.528L193.135 348.017L192.347 287.393ZM363.982 100.096L342.286 116.355L390.688 156.102L363.982 100.096ZM369.534 271.801L265.228 269.926L367.599 202.476L369.534 271.801Z" stroke="#30E9EF" stroke-linecap="round" stroke-linejoin="round"/>
<path d="M145.097 91.376L180.702 113.055L190.678 202.476L238.246 183.504L265.228 269.925L367.599 202.476L342.286 116.355L263.062 114.3M193.135 348.017L192.347 287.393L118.357 286.931L129.975 204.518L94.3701 182.835" stroke="#34F7DC" stroke-width="5" stroke-linecap="round" stroke-linejoin="round"/>
<path d="M180.702 113.055L271.907 57.3377L308.5 87.862M129.975 204.518L156.704 156.324M285.302 153.136L238.246 183.505M300.55 197.924L342.286 116.355M363.982 100.098L330.368 84.1738M267.56 335.528L266.28 302.852M6.31201 184.858L25.5133 230.37L37.1331 147.951L65.509 166.921M116.236 75.4597L87.8619 56.4915M87.8619 56.4915L120.491 37.2431M87.8619 56.4915L76.9813 52.9665L21.344 133.668M205.769 22.1512L177.68 2.98438M25.9968 278.963L45.5144 257.562" stroke="#34F7DC" stroke-width="5" stroke-linecap="round" stroke-linejoin="round"/>
</g>
<defs>
<linearGradient id="paint0_linear_1_17560" x1="303.446" y1="198.891" x2="116.702" y2="157.704" gradientUnits="userSpaceOnUse">
<stop stop-color="#4BCDEF"/>
<stop offset="1" stop-color="#6B28EA"/>
</linearGradient>
<radialGradient id="paint1_radial_1_17560" cx="0" cy="0" r="1" gradientUnits="userSpaceOnUse" gradientTransform="translate(91.9242 100.095) scale(338.406 366.312)">
<stop stop-color="#53C1EE"/>
<stop offset="1" stop-color="#6B28EA"/>
</radialGradient>
</defs>
</svg>
