<svg width="39" height="39" viewBox="0 0 39 39" fill="none" xmlns="http://www.w3.org/2000/svg">
<path d="M25.1469 10.1813C24.6969 9.73125 23.9937 9.73125 23.5437 10.1813L18.65 15.0469L16.4563 12.8531C16.0063 12.4031 15.3031 12.4031 14.8531 12.8531C14.4031 13.3031 14.4031 14.0063 14.8531 14.4563L18.65 18.2531L25.1187 11.7844C25.5687 11.3344 25.5688 10.6031 25.1469 10.1813Z" fill="#40BAFF"/>
<path d="M31.5596 7.45352L31.5314 7.39727C28.1283 0.984765 22.1096 0.478516 20.3377 0.478516H19.6627C17.8908 0.478516 11.9002 0.984765 8.46894 7.39727L8.44081 7.45352C8.32831 7.70664 5.37519 14.1191 9.28456 20.5035V20.5316C9.36894 20.6723 11.5908 24.0754 11.8439 24.4691C12.1252 24.891 12.2939 25.9598 12.3221 26.7473V29.9816C12.3221 30.4035 12.3221 30.8254 12.3502 31.2754C12.4064 32.1754 13.0252 32.8785 13.8971 32.991C14.4314 33.0754 14.9939 33.1316 15.7252 33.1598C16.2314 33.1879 16.3158 33.3566 16.3721 33.4691C16.9627 34.7066 18.3971 35.4941 20.0283 35.4941C20.8158 35.4941 21.5471 35.2973 22.1377 34.9879C22.7564 34.6504 23.2346 34.1723 23.5439 33.5535C23.6002 33.4129 23.7408 33.1879 24.3314 33.1598C24.8939 33.1598 25.3439 33.1316 25.7377 33.0754C27.0033 32.9348 27.7064 32.1191 27.6502 30.8254C27.6502 30.5723 27.6221 30.3473 27.5939 30.1223C27.5658 29.841 27.5377 29.5879 27.5377 29.3348C27.5658 28.941 27.5939 26.7754 27.6221 26.4098C27.7064 25.7066 27.8189 24.9191 28.1283 24.441C28.3814 24.0473 30.6033 20.6441 30.6877 20.5035V20.4754C34.6533 14.1473 31.7002 7.73477 31.5596 7.45352ZM28.9439 19.4066C28.8033 19.6316 26.6377 22.9504 26.4127 23.316C26.3002 23.4848 26.2158 23.6535 26.1314 23.8223C25.6814 24.7785 24.7252 25.3973 23.6564 25.3973H16.1189C15.1346 25.3973 14.2627 24.8066 13.8971 23.8785C13.8127 23.6535 13.7002 23.4566 13.5877 23.2879C13.3346 22.9223 11.1689 19.6035 11.0564 19.3785C7.85019 14.1473 10.1564 8.69102 10.3252 8.35352C14.4314 0.731641 25.6252 0.816015 29.6752 8.38164C29.8439 8.74727 32.1502 14.1754 28.9439 19.4066Z" fill="#40BAFF"/>
</svg>
